{"title":"Blood.Diamond.2006.DVDRIP-ZEKTORM","uid":4655477,"size":756912992,"categoryP":"video","categoryS":"movies","magnet":"?xt=urn:btih:46dc942dfa5d3e644db7c641e3dd5a5e349ade10&amp;dn=Blood.Diamond.2006.DVDRIP-ZEKTORM&amp;tr=udp%3A%2F%2Ftracker.openbittorrent.com%3A80&amp;tr=udp%3A%2F%2Fopen.demonii.com%3A1337&amp;tr=udp%3A%2F%2Ftracker.coppersurfer.tk%3A6969&amp;tr=udp%3A%2F%2Fexodus.desync.com%3A6969","seeders":1,"leechers":0,"uploader":"blowley","files":4,"time":1232192491,"description":"Title                            : Blood Diamond\nYear                             : 2006\nGenre                            : Adventure | Drama | Thriller\niMDB Rate                        : User Rating: 8.0/10   85,577 votes\niMDB URL                         : http://www.imdb.com/title/tt0450259/\nAwards                           : Nominated for 5 Oscars. Another 5 wins &amp; 14 nominations\n\nComplete name                    : Blood.Diamond.2006.DVDRIP-ZEKTORM.mp4\nFormat                           : MPEG-4\nFormat profile                   : Base Media\nCodec ID                         : isom\nFile size                        : 700 MiB\nDuration                         : 2h 23mn\nOverall bit rate                 : 683 Kbps\nSubtitles                        : English, Spanish, French (Format: VobSub)\nSource                           : DVD NTSC\nEncoded date                     : UTC 2009-01-16 00:48:23\n\nVideo\nFormat                           : AVC\nFormat/Info                      : Advanced Video Codec\nFormat profile                   : &lt;a class=&quot;__cf_email__&quot; href=&quot;/cdn-cgi/l/email-protection&quot; data-cfemail=&quot;e6ae8f818ea6aad2c8d7&quot;&gt;[email&amp;#160;protected]&lt;/a&gt;&lt;script cf-hash='f9e31' type=&quot;text/javascript&quot;&gt;\n/* &lt;![CDATA[ */!function(){try{var t=&quot;currentScript&quot;in document?document.currentScript:function(){for(var t=document.getElementsByTagName(&quot;script&quot;),e=t.length;e--;)if(t[e].getAttribute(&quot;cf-hash&quot;))return t[e]}();if(t&amp;&amp;t.previousSibling){var e,r,n,i,c=t.previousSibling,a=c.getAttribute(&quot;data-cfemail&quot;);if(a){for(e=&quot;&quot;,r=parseInt(a.substr(0,2),16),n=2;a.length-n;n+=2)i=parseInt(a.substr(n,2),16)^r,e+=String.fromCharCode(i);e=document.createTextNode(e),c.parentNode.replaceChild(e,c)}}}catch(u){}}();/* ]]&gt; */&lt;/script&gt;\nFormat settings, CABAC           : Yes\nFormat settings, ReFrames        : 10 frames\nCodec ID                         : avc1\nCodec ID/Info                    : Advanced Video Coding\nDuration                         : 2h 23mn\nBit rate mode                    : Variable\nBit rate                         : 592 Kbps\nMaximum bit rate                 : 4750 Kbps\nWidth                            : 720 pixels\nHeight                           : 352 pixels\nDisplay aspect ratio             : 2.479\nFrame rate mode                  : Constant\nFrame rate                       : 23.976 fps\nResolution                       : 24 bits\nColorimetry                      : 4:2:0\nScan type                        : Progressive\nBits/(Pixel*Frame)               : 0.097\nStream size                      : 607 MiB (87%)\nTitle                            : Video\nWriting library                  : x264 core 60 r900 a9af942\n\nAudio\nFormat                           : AAC\nFormat/Info                      : Advanced Audio Codec\nFormat version                   : Version 4\nFormat profile                   : LC\nFormat settings, SBR             : Yes\nFormat settings, PS              : No\nCodec ID                         : 40\nDuration                         : 2h 23mn\nBit rate mode                    : Variable\nBit rate                         : 87.8 Kbps\nMaximum bit rate                 : 112 Kbps\nChannel(s)                       : 2 channels\nChannel positions                : L R\nSampling rate                    : 48.0 KHz\nResolution                       : 16 bits\nStream size                      : 90.1 MiB (13%)\nTitle                            : English\nLanguage                         : English\n\nNotes                            : Convert to DVD with Nero","torrent":{"xt":"urn:btih:46dc942dfa5d3e644db7c641e3dd5a5e349ade10","amp;dn":"Blood.Diamond.2006.DVDRIP-ZEKTORM","amp;tr":["udp%3A%2F%2Ftracker.openbittorrent.com%3A80","udp%3A%2F%2Fopen.demonii.com%3A1337","udp%3A%2F%2Ftracker.coppersurfer.tk%3A6969","udp%3A%2F%2Fexodus.desync.com%3A6969"],"infoHash":"46dc942dfa5d3e644db7c641e3dd5a5e349ade10","infoHashBuffer":{"type":"Buffer","data":[70,220,148,45,250,93,62,100,77,183,198,65,227,221,90,94,52,154,222,16]},"announce":[],"urlList":[]}}